<?xml version="1.0" encoding="UTF-8"?><svg id="Calque_2" xmlns="http://www.w3.org/2000/svg" viewBox="0 0 200 200"><defs><style>.cls-1{fill:#f5faff;}.cls-1,.cls-2{stroke-width:0px;}.cls-2{fill:#a329de;}</style></defs><g id="Calque_1-2"><path class="cls-2" d="M100,200c55.23,0,100-44.77,100-100S155.23,0,100,0,0,44.77,0,100s44.77,100,100,100"/><path class="cls-1" d="M105.38,120.51c-2.79-.96-4.93-2.65-5.67-5.85-.33-2.15-.23-4.33.28-6.44.02-.8-.42-1.3-1.31-1.49-6.31-.28-12.24-.62-16.29-1.1-3.5-.42-6.94-1.2-10.28-2.33-3.61-1.24-7.09-2.84-10.39-4.76-4.75-2.81-8.72-6.19-11.76-10.24-2.24-2.77-3.93-5.94-5-9.35-1.22-3.81-1.65-7.83-1.27-11.82.28-3.4.99-6.76,2.12-9.98l3.49-8.78-.53,8.41c-.51,5.37.36,10.59,2.06,15.72,1.57,4.55,4.47,8.41,8.46,11.69,3.25,2.4,6.95,4.14,10.87,5.11l3.58.82h.57l.68-.29c-4.22-2.54-8.25-5.36-12.08-8.45-3.68-3.31-6.35-7.19-7.76-11.75-.87-2.92-1.19-5.98-.96-9.02.19-2.71.71-5.39,1.55-7.98.94-2.9,2.23-5.67,3.85-8.25,1.84-2.98,4.05-5.7,6.58-8.12,2.71-2.59,5.75-4.8,9.04-6.6-6.33,7.31-10.61,14.81-12.06,22.55-.95,5.27.12,10.7,2.98,15.22,2.23,3.33,5.33,6.19,9.2,8.66,2.58,1.68,5.35,3.04,8.25,4.05-5.21-4.66-9.51-9.75-12.44-15.45-1.9-4.99-2.21-9.62-.83-13.86,1.06-3.97,3.12-7.6,5.97-10.56,2.46-2.74,5.28-5.15,8.38-7.16l5.21-3.18c-3.93,5.8-7.1,11.32-8.57,16.2-1.08,4.59-.52,9.07,1.39,13.46,1.59,3.63,4.48,6.6,8.35,9.01,4.03,2.36,13.9,6.36,13.9,6.36,5.54,2.49,10.68,5.79,15.27,9.78,6.73,5.68,10.19,11.89,9.25,18.88-.74,4.81-4,9.19-8.95,13.27,0,0-6.76,5.78-15.14,3.62"/><path class="cls-1" d="M113.98,128.01c-.47.07,5.97,15.85,5.97,15.85l4.25,12.91c.53,1.7,1.56,2.4,3.03,2.25l18.06-.18c-1.44-2.65-3.75-5-7.95-6.68-1.83-.22-2.89-2.6-2.86-4.39l.06-4.13s.28-35.99-.19-37.63c-.28-.97-5.43,19.67-20.37,22.01"/><path class="cls-1" d="M109.07,35.99l-.07,13.06s.03,8.91-1.11,12.73c-.81,2.57-1.81,5.08-3.01,7.5l6.6,3.72,7.13,4.05,6.24,4.04s2.29,1.61,4.64,3.6c1.53,1.31,2.97,2.74,4.29,4.27,1.05,1.28,1.98,2.65,2.8,4.08.71,1.41,1.22,2.91,1.51,4.45l1.27,7.08c.16.62.37,1.24.61,1.83.29.58.64,1.14,1.04,1.65.48.51,1.02.95,1.61,1.32.56.4,1.25.56,1.92.45,0,0,.35,0,.59-.87.15-.5.17-1.02.06-1.53l-.7-1.47-.2-5.04-.27-3.66.1-3.64.17-3.41c0-2.14-.23-4.28-.7-6.36-.18-.82-.44-1.63-.77-2.4-.52-1.23-1.89-1.85-3.17-1.48-.39.12-.78.2-1.19.27-.48.07-1.23.02-1.67-.16-1.55-.63-2.68-2.01-3.07-3.63-.84-3.48.17-6.77,3.57-9.76.41-.41.83-.77,1.19-1.2,2.14-2.54.68-19.93.68-19.93v-9.57h-7.16v15.79h-4.07v-15.79h-6.81v15.77h-4.14v-15.77h-7.93Z"/><path class="cls-1" d="M138.43,77.05c3.59,0,6.44-.71,6.82-1.76.4-1.12-2.37-5.57-5.44-6.5-.83-.25-2.64,2.43-2.91,3.92-.86,4.73.61,4.34,1.54,4.34"/><path class="cls-1" d="M44.06,159.04h52.28c-2.95-4.19-6-6.69-10.18-6.42,0,0-17.71-.23-16.25-.43,16-2.23,18.86-13.01,19.98-10.87.36,4.97-3.14,8.08-2.67,8.08,27.5.12,22.85-3.04,22.85-3.04,0,0-1.68-18.41-5.01-19.71-4.3-.78-10.81-5.74-11.62-10.43v-2.48c-6.18-.63-12.3-1.67-18.34-3.11-5.48,0-10.6,3.81-14.69,7.93-7.43,7.49-12.52,17.01-14.73,27.32-1.61,7.51-1.6,13.14-1.6,13.14"/></g></svg>